<svg width="201" height="108" viewBox="0 0 201 108" fill="none" xmlns="http://www.w3.org/2000/svg">
<path d="M10.764 44.844C8.964 44.844 7.332 44.376 5.868 43.44C4.404 42.528 3.24 41.292 2.376 39.732C1.536 38.148 1.116 36.384 1.116 34.44C1.116 32.616 1.452 30.972 2.124 29.508C2.796 28.02 3.708 26.748 4.86 25.692C6.036 24.636 7.368 23.832 8.856 23.28C10.344 22.704 11.904 22.416 13.536 22.416C14.904 22.416 16.248 22.608 17.568 22.992C17.664 22.488 17.748 21.984 17.82 21.48L23.976 22.524C23.808 22.98 23.64 23.664 23.472 24.576C23.304 25.488 23.16 26.508 23.04 27.636C22.944 28.764 22.86 29.892 22.788 31.02C22.716 32.148 22.68 33.168 22.68 34.08C22.68 34.824 22.728 35.556 22.824 36.276C22.944 36.972 23.184 37.548 23.544 38.004C23.904 38.436 24.456 38.652 25.2 38.652H25.704L24.804 44.916C23.22 44.916 21.912 44.64 20.88 44.088C19.848 43.56 19.02 42.84 18.396 41.928C17.364 43.08 16.188 43.848 14.868 44.232C13.548 44.64 12.18 44.844 10.764 44.844ZM7.02 35.16C7.14 36.312 7.608 37.236 8.424 37.932C9.264 38.604 10.32 38.94 11.592 38.94C12.816 38.94 13.836 38.616 14.652 37.968C15.468 37.296 16.14 36.384 16.668 35.232C16.644 34.848 16.632 34.452 16.632 34.044C16.632 33.204 16.656 32.34 16.704 31.452C16.752 30.564 16.812 29.688 16.884 28.824C15.876 28.44 14.82 28.248 13.716 28.248C12.42 28.248 11.256 28.512 10.224 29.04C9.216 29.544 8.424 30.252 7.848 31.164C7.272 32.076 6.984 33.132 6.984 34.332C6.984 34.476 6.984 34.62 6.984 34.764C6.984 34.908 6.996 35.04 7.02 35.16ZM28.2786 44.592C28.2786 42.624 28.3146 40.512 28.3866 38.256C28.4586 36 28.5546 33.708 28.6746 31.38C28.7946 29.052 28.9146 26.772 29.0346 24.54C29.1786 22.308 29.3226 20.208 29.4666 18.24C29.6106 16.248 29.7306 14.484 29.8266 12.948L35.8386 13.02C35.6946 14.388 35.5506 15.924 35.4066 17.628C35.2866 19.332 35.1666 21.144 35.0466 23.064C35.7426 22.776 36.4866 22.56 37.2786 22.416C38.0946 22.248 38.9706 22.164 39.9066 22.164C41.1786 22.164 42.3906 22.38 43.5426 22.812C44.7186 23.22 45.7746 23.856 46.7106 24.72C47.6466 25.584 48.3786 26.7 48.9066 28.068C49.4586 29.436 49.7346 31.08 49.7346 33C49.7346 35.04 49.4466 36.804 48.8706 38.292C48.2946 39.78 47.5146 41.004 46.5306 41.964C45.5466 42.924 44.4306 43.632 43.1826 44.088C41.9586 44.568 40.6986 44.808 39.4026 44.808C38.4186 44.808 37.4946 44.676 36.6306 44.412C35.7906 44.148 35.0106 43.8 34.2906 43.368C34.2906 43.752 34.2906 44.136 34.2906 44.52L28.2786 44.592ZM39.0786 28.212C37.2786 28.212 35.8146 28.74 34.6866 29.796C34.5906 32.004 34.5066 34.164 34.4346 36.276C35.6106 37.836 37.2546 38.616 39.3666 38.616C40.0626 38.616 40.7586 38.46 41.4546 38.148C42.1746 37.812 42.7746 37.248 43.2546 36.456C43.7346 35.664 43.9746 34.56 43.9746 33.144C43.9746 31.536 43.5546 30.312 42.7146 29.472C41.8986 28.632 40.6866 28.212 39.0786 28.212ZM62.8692 44.952C60.9492 44.952 59.2692 44.64 57.8292 44.016C56.4132 43.392 55.2372 42.54 54.3012 41.46C53.3652 40.356 52.6692 39.096 52.2132 37.68C51.7572 36.264 51.5292 34.776 51.5292 33.216C51.5292 31.632 51.8052 30.168 52.3572 28.824C52.9332 27.456 53.7132 26.268 54.6972 25.26C55.7052 24.252 56.8812 23.472 58.2252 22.92C59.5692 22.344 61.0332 22.056 62.6172 22.056C64.2732 22.056 65.8092 22.344 67.2252 22.92C68.6412 23.496 69.8772 24.3 70.9332 25.332C71.9892 26.364 72.8052 27.576 73.3812 28.968C73.9812 30.36 74.2812 31.872 74.2812 33.504C74.2812 37.128 73.2852 39.948 71.2932 41.964C69.3012 43.956 66.4932 44.952 62.8692 44.952ZM62.8332 39.12C64.5852 39.12 65.9172 38.628 66.8292 37.644C67.7652 36.66 68.2332 35.244 68.2332 33.396C68.2332 31.74 67.7292 30.408 66.7212 29.4C65.7132 28.392 64.3932 27.888 62.7612 27.888C61.7772 27.888 60.8772 28.152 60.0612 28.68C59.2452 29.184 58.5852 29.868 58.0812 30.732C57.6012 31.572 57.3612 32.508 57.3612 33.54C57.3612 34.452 57.5412 35.34 57.9012 36.204C58.2852 37.068 58.8852 37.776 59.7012 38.328C60.5172 38.856 61.5612 39.12 62.8332 39.12ZM87.435 44.808C86.451 44.808 85.599 44.52 84.879 43.944C84.159 43.368 83.535 42.66 83.007 41.82C82.479 40.98 82.011 40.164 81.603 39.372C80.859 37.86 80.151 36.204 79.479 34.404C78.807 32.604 78.219 30.732 77.715 28.788C77.211 26.844 76.827 24.924 76.563 23.028L83.079 22.092C83.271 24.324 83.571 26.424 83.979 28.392C84.387 30.36 84.867 32.112 85.419 33.648C85.971 35.184 86.535 36.432 87.111 37.392C87.231 37.56 87.339 37.728 87.435 37.896C87.555 38.064 87.615 38.148 87.615 38.148C87.663 38.148 87.855 37.896 88.191 37.392C89.247 35.544 90.231 33.384 91.143 30.912C92.055 28.44 92.847 25.452 93.519 21.948L99.855 23.208C99.231 25.464 98.655 27.432 98.127 29.112C97.599 30.768 97.083 32.22 96.579 33.468C96.075 34.716 95.571 35.844 95.067 36.852C94.563 37.836 94.035 38.796 93.483 39.732C93.123 40.38 92.655 41.1 92.079 41.892C91.527 42.684 90.867 43.368 90.099 43.944C89.331 44.52 88.443 44.808 87.435 44.808ZM113.639 44.88C111.335 44.88 109.307 44.424 107.555 43.512C105.827 42.624 104.471 41.376 103.487 39.768C102.527 38.16 102.047 36.3 102.047 34.188C102.047 32.916 102.263 31.584 102.695 30.192C103.127 28.776 103.823 27.456 104.783 26.232C105.743 25.008 107.003 24.012 108.563 23.244C110.147 22.476 112.067 22.092 114.323 22.092C115.955 22.092 117.323 22.272 118.427 22.632C119.555 22.992 120.467 23.46 121.163 24.036C121.883 24.612 122.423 25.224 122.783 25.872C123.167 26.52 123.419 27.144 123.539 27.744C123.683 28.32 123.755 28.8 123.755 29.184C123.755 31.512 122.771 33.312 120.803 34.584C118.859 35.832 116.099 36.456 112.523 36.456C111.707 36.456 110.927 36.42 110.183 36.348C109.463 36.276 108.791 36.192 108.167 36.096C108.623 37.296 109.379 38.184 110.435 38.76C111.491 39.312 112.583 39.588 113.711 39.588C115.343 39.588 116.783 39.3 118.031 38.724C119.279 38.124 120.455 37.212 121.559 35.988L124.763 40.596C123.995 41.22 123.131 41.868 122.171 42.54C121.235 43.212 120.083 43.764 118.715 44.196C117.347 44.652 115.655 44.88 113.639 44.88ZM114.431 27.492C113.015 27.492 111.767 27.852 110.687 28.572C109.607 29.292 108.815 30.24 108.311 31.416C108.911 31.512 109.499 31.596 110.075 31.668C110.675 31.716 111.263 31.74 111.839 31.74C112.367 31.74 112.967 31.692 113.639 31.596C114.335 31.5 115.007 31.356 115.655 31.164C116.327 30.972 116.879 30.732 117.311 30.444C117.743 30.132 117.959 29.772 117.959 29.364C117.959 29.172 117.863 28.932 117.671 28.644C117.479 28.356 117.131 28.092 116.627 27.852C116.123 27.612 115.391 27.492 114.431 27.492Z" fill="#008705"/>
<path d="M157.764 86.844C155.964 86.844 154.332 86.376 152.868 85.44C151.404 84.528 150.24 83.292 149.376 81.732C148.536 80.148 148.116 78.384 148.116 76.44C148.116 74.616 148.452 72.972 149.124 71.508C149.796 70.02 150.708 68.748 151.86 67.692C153.036 66.636 154.368 65.832 155.856 65.28C157.344 64.704 158.904 64.416 160.536 64.416C161.904 64.416 163.248 64.608 164.568 64.992C164.664 64.488 164.748 63.984 164.82 63.48L170.976 64.524C170.808 64.98 170.64 65.664 170.472 66.576C170.304 67.488 170.16 68.508 170.04 69.636C169.944 70.764 169.86 71.892 169.788 73.02C169.716 74.148 169.68 75.168 169.68 76.08C169.68 76.824 169.728 77.556 169.824 78.276C169.944 78.972 170.184 79.548 170.544 80.004C170.904 80.436 171.456 80.652 172.2 80.652H172.704L171.804 86.916C170.22 86.916 168.912 86.64 167.88 86.088C166.848 85.56 166.02 84.84 165.396 83.928C164.364 85.08 163.188 85.848 161.868 86.232C160.548 86.64 159.18 86.844 157.764 86.844ZM154.02 77.16C154.14 78.312 154.608 79.236 155.424 79.932C156.264 80.604 157.32 80.94 158.592 80.94C159.816 80.94 160.836 80.616 161.652 79.968C162.468 79.296 163.14 78.384 163.668 77.232C163.644 76.848 163.632 76.452 163.632 76.044C163.632 75.204 163.656 74.34 163.704 73.452C163.752 72.564 163.812 71.688 163.884 70.824C162.876 70.44 161.82 70.248 160.716 70.248C159.42 70.248 158.256 70.512 157.224 71.04C156.216 71.544 155.424 72.252 154.848 73.164C154.272 74.076 153.984 75.132 153.984 76.332C153.984 76.476 153.984 76.62 153.984 76.764C153.984 76.908 153.996 77.04 154.02 77.16ZM174.811 86.808C174.907 84.816 174.979 82.824 175.027 80.832C175.075 78.84 175.099 76.872 175.099 74.928C175.075 73.152 175.039 71.4 174.991 69.672C174.967 67.92 174.907 66.228 174.811 64.596L180.859 64.416C180.883 65.304 180.919 66.216 180.967 67.152C181.735 66.192 182.623 65.424 183.631 64.848C184.663 64.248 185.839 63.948 187.159 63.948C187.663 63.948 188.311 64.02 189.103 64.164C189.895 64.308 190.699 64.584 191.515 64.992L190.831 71.076C190.231 70.716 189.583 70.464 188.887 70.32C188.215 70.152 187.651 70.068 187.195 70.068C185.659 70.068 184.351 70.764 183.271 72.156C182.215 73.524 181.495 75.432 181.111 77.88C181.111 79.56 181.087 81.168 181.039 82.704C181.015 84.216 180.955 85.584 180.859 86.808H174.811Z" fill="#008705"/>
<path d="M145.75 105.7C145.75 105.996 145.57 106.285 145.227 106.556C144.884 106.826 144.385 107.072 143.763 107.279C142.521 107.693 140.802 107.95 138.9 107.95C136.998 107.95 135.279 107.693 134.037 107.279C133.415 107.072 132.916 106.826 132.573 106.556C132.23 106.285 132.05 105.996 132.05 105.7C132.05 105.404 132.23 105.115 132.573 104.844C132.916 104.574 133.415 104.328 134.037 104.121C135.279 103.707 136.998 103.45 138.9 103.45C140.802 103.45 142.521 103.707 143.763 104.121C144.385 104.328 144.884 104.574 145.227 104.844C145.57 105.115 145.75 105.404 145.75 105.7Z" fill="black" stroke="url(#paint0_radial_147_4)" stroke-width="0.1"/>
<path d="M136.6 22.8999H141.2V105.586C141.2 105.586 139.8 105.7 138.9 105.7C137.999 105.7 136.6 105.586 136.6 105.586V22.8999Z" fill="#EDEBEB"/>
<path d="M136.6 22.9698C136.6 22.9698 151.762 22.2751 160.75 25.2657C169.738 28.2562 172.25 35.6361 181.45 37.8931C185.399 38.8619 187.733 39.0966 191.8 39.041C195.42 38.9915 201 37.8931 201 37.8931C201 37.8931 197.198 46.4975 192.95 50.5205C187.85 55.35 183.757 57.2541 176.85 58.5561C169.296 59.9799 164.969 55.7362 157.3 56.2602C148.929 56.832 136.6 61.9999 136.6 61.9999V22.9698Z" fill="#BD2222"/>
<defs>
<radialGradient id="paint0_radial_147_4" cx="0" cy="0" r="1" gradientUnits="userSpaceOnUse" gradientTransform="translate(138.9 105.7) rotate(90) scale(2.3 6.9)">
<stop offset="0.94"/>
<stop offset="1" stop-color="#AEADAD"/>
</radialGradient>
</defs>
</svg>
